<svg width="512" height="512" viewBox="0 0 512 512" fill="none" xmlns="http://www.w3.org/2000/svg">
<g clip-path="url(#clip0_509_2)">
<rect width="512" height="512" fill="#6661B7"/>
<path d="M512 512H0L200 312V199H313L512 0V512Z" fill="#5E4FA2"/>
<path d="M333.6 128C341.154 128 348.267 131.556 352.8 137.6L379.2 172.8C382.316 176.954 384 182.007 384 187.2V193.6C384 206.854 373.255 217.6 360 217.6H241.6C228.345 217.6 217.6 228.345 217.6 241.6V308.8C217.6 322.055 228.345 332.8 241.6 332.8H308.8C322.055 332.8 332.8 322.055 332.8 308.8V267.2C332.8 253.945 343.545 243.2 356.8 243.2H360C373.255 243.2 384 253.945 384 267.2V360C384 373.255 373.255 384 360 384H152C138.745 384 128 373.255 128 360V292.8C128 279.545 138.745 268.8 152 268.8H155.2C168.455 268.8 179.2 258.055 179.2 244.8V241.6C179.2 228.345 168.455 217.6 155.2 217.6H152C138.745 217.6 128 206.854 128 193.6V187.2C128 182.007 129.684 176.954 132.8 172.8L159.2 137.6C163.733 131.556 170.846 128 178.4 128H333.6ZM283.2 243.2C296.455 243.2 307.2 253.945 307.2 267.2V283.2C307.2 296.455 296.455 307.2 283.2 307.2H267.2C253.945 307.2 243.2 296.455 243.2 283.2V267.2C243.2 253.945 253.945 243.2 267.2 243.2H283.2Z" fill="white"/>
</g>
<defs>
<clipPath id="clip0_509_2">
<rect width="512" height="512" fill="white"/>
</clipPath>
</defs>
</svg>
